<svg width="60" height="52" viewBox="0 0 60 52" fill="none" xmlns="http://www.w3.org/2000/svg">
<path d="M53.1701 37.9905H32.9416C32.7143 37.9905 32.2597 37.9905 32.0324 38.2178L16.8043 50.2639C16.577 50.4912 16.577 50.7185 16.8043 50.9458C16.8043 51.1731 17.0315 51.1731 17.2588 51.1731H53.3974C57.0339 51.1731 60.216 47.9911 59.9887 44.1272C59.7614 40.4906 56.5794 37.9905 53.1701 37.9905Z" fill="#00C9DB"/>
<path d="M36.6668 25.3011C36.4395 23.4828 35.5304 21.6645 34.1667 20.528L10.7562 1.89055C7.80144 -0.382314 3.71029 0.0722589 1.43743 3.02698C-0.835439 5.98171 -0.380866 10.0729 2.57386 12.3457L19.6203 25.9829L2.57386 39.6201C-0.380866 41.893 -0.835439 45.9841 1.43743 48.9388C3.71029 51.8936 7.80144 52.3481 10.7562 50.0753L34.1667 30.9832C35.7577 29.6195 36.6668 27.8012 36.6668 25.7556V25.3011Z" fill="#0D55FF"/>
<path d="M59.9888 44.5818C59.9888 48.2184 57.034 51.1731 53.3975 51.1731C49.7609 51.1731 46.8062 48.2184 46.8062 44.5818C46.8062 40.9452 49.7609 37.9905 53.3975 37.9905C57.034 37.9905 59.9888 40.9452 59.9888 44.5818Z" fill="#7000F2"/>
</svg>
