<svg width="203" height="29" viewBox="0 0 203 29" fill="none" xmlns="http://www.w3.org/2000/svg">
<path d="M47.3935 23H41.0414V5.81481H47.3851C49.1361 5.81481 50.6437 6.15885 51.908 6.84693C53.1778 7.52942 54.1568 8.51398 54.8449 9.80064C55.533 11.0817 55.877 12.6145 55.877 14.399C55.877 16.1891 55.533 17.7275 54.8449 19.0142C54.1624 20.3008 53.1862 21.2882 51.9164 21.9763C50.6465 22.6588 49.1389 23 47.3935 23ZM45.195 19.4589H47.2341C48.1963 19.4589 49.0102 19.2967 49.6759 18.9722C50.3472 18.6422 50.8535 18.1079 51.1947 17.3695C51.5416 16.6255 51.715 15.6353 51.715 14.399C51.715 13.1627 51.5416 12.1781 51.1947 11.4453C50.8479 10.7069 50.336 10.1754 49.6591 9.85098C48.9878 9.52093 48.1599 9.3559 47.1753 9.3559H45.195V19.4589ZM57.475 23V5.81481H69.4577V9.18808H61.6287V12.7124H68.8451V16.094H61.6287V19.6267H69.4577V23H57.475ZM86.8312 12.0411H82.6355C82.5796 11.6103 82.4649 11.2215 82.2915 10.8747C82.1181 10.5279 81.8887 10.2314 81.6034 9.98524C81.3181 9.7391 80.9797 9.5517 80.5881 9.42303C80.2021 9.28877 79.7741 9.22164 79.3042 9.22164C78.4707 9.22164 77.7519 9.42583 77.1477 9.8342C76.5491 10.2426 76.0876 10.8328 75.7632 11.6047C75.4443 12.3767 75.2849 13.311 75.2849 14.4074C75.2849 15.5486 75.4471 16.5052 75.7715 17.2772C76.1016 18.0436 76.5631 18.6226 77.1561 19.0142C77.7547 19.4002 78.4623 19.5932 79.2791 19.5932C79.7378 19.5932 80.1546 19.5344 80.5294 19.417C80.9098 19.2995 81.2426 19.1289 81.5279 18.9051C81.8188 18.6757 82.0566 18.3988 82.2412 18.0744C82.4314 17.7443 82.5628 17.3723 82.6355 16.9583L86.8312 16.9835C86.7584 17.7443 86.5375 18.4939 86.1682 19.2323C85.8046 19.9708 85.304 20.6449 84.6662 21.2546C84.0285 21.8588 83.2509 22.3399 82.3335 22.6979C81.4216 23.0559 80.3755 23.235 79.1952 23.235C77.64 23.235 76.247 22.8937 75.0163 22.2112C73.7912 21.5231 72.8234 20.5218 72.113 19.2072C71.4025 17.8926 71.0473 16.2926 71.0473 14.4074C71.0473 12.5166 71.4081 10.9139 72.1298 9.59925C72.8514 8.28463 73.8276 7.28607 75.0583 6.60359C76.289 5.9211 77.668 5.57986 79.1952 5.57986C80.2357 5.57986 81.1979 5.72531 82.0817 6.0162C82.9656 6.3015 83.7432 6.72106 84.4145 7.27488C85.0858 7.82311 85.6312 8.4972 86.0508 9.29716C86.4703 10.0971 86.7305 11.0118 86.8312 12.0411ZM104.601 14.4074C104.601 16.2982 104.237 17.9009 103.51 19.2156C102.783 20.5302 101.798 21.5287 100.557 22.2112C99.3203 22.8937 97.9329 23.235 96.3945 23.235C94.8505 23.235 93.4604 22.8909 92.2241 22.2028C90.9878 21.5148 90.006 20.5162 89.2788 19.2072C88.5571 17.8926 88.1963 16.2926 88.1963 14.4074C88.1963 12.5166 88.5571 10.9139 89.2788 9.59925C90.006 8.28463 90.9878 7.28607 92.2241 6.60359C93.4604 5.9211 94.8505 5.57986 96.3945 5.57986C97.9329 5.57986 99.3203 5.9211 100.557 6.60359C101.798 7.28607 102.783 8.28463 103.51 9.59925C104.237 10.9139 104.601 12.5166 104.601 14.4074ZM100.355 14.4074C100.355 13.2886 100.196 12.3432 99.8769 11.5712C99.5636 10.7992 99.1105 10.2146 98.5175 9.81742C97.9301 9.42023 97.2225 9.22164 96.3945 9.22164C95.5722 9.22164 94.8645 9.42023 94.2715 9.81742C93.6786 10.2146 93.2226 10.7992 92.9038 11.5712C92.5905 12.3432 92.4339 13.2886 92.4339 14.4074C92.4339 15.5262 92.5905 16.4716 92.9038 17.2436C93.2226 18.0156 93.6786 18.6002 94.2715 18.9974C94.8645 19.3946 95.5722 19.5932 96.3945 19.5932C97.2225 19.5932 97.9301 19.3946 98.5175 18.9974C99.1105 18.6002 99.5636 18.0156 99.8769 17.2436C100.196 16.4716 100.355 15.5262 100.355 14.4074ZM112.551 23H106.199V5.81481H112.543C114.294 5.81481 115.801 6.15885 117.066 6.84693C118.336 7.52942 119.315 8.51398 120.003 9.80064C120.691 11.0817 121.035 12.6145 121.035 14.399C121.035 16.1891 120.691 17.7275 120.003 19.0142C119.32 20.3008 118.344 21.2882 117.074 21.9763C115.804 22.6588 114.297 23 112.551 23ZM110.353 19.4589H112.392C113.354 19.4589 114.168 19.2967 114.834 18.9722C115.505 18.6422 116.011 18.1079 116.352 17.3695C116.699 16.6255 116.873 15.6353 116.873 14.399C116.873 13.1627 116.699 12.1781 116.352 11.4453C116.006 10.7069 115.494 10.1754 114.817 9.85098C114.146 9.52093 113.318 9.3559 112.333 9.3559H110.353V19.4589ZM122.633 23V5.81481H134.615V9.18808H126.786V12.7124H134.003V16.094H126.786V19.6267H134.615V23H122.633ZM140.639 23V5.81481H147.805C149.092 5.81481 150.169 5.99662 151.036 6.36024C151.909 6.72386 152.563 7.23293 153 7.88744C153.442 8.54196 153.662 9.29996 153.662 10.1615C153.662 10.816 153.525 11.4006 153.251 11.9152C152.977 12.4243 152.6 12.8466 152.118 13.1823C151.637 13.5179 151.081 13.7529 150.449 13.8872V14.055C151.142 14.0885 151.783 14.2759 152.37 14.6172C152.963 14.9584 153.439 15.4339 153.797 16.0437C154.155 16.6479 154.334 17.3639 154.334 18.1918C154.334 19.1149 154.099 19.94 153.629 20.6672C153.159 21.3889 152.479 21.9595 151.59 22.3791C150.7 22.793 149.621 23 148.351 23H140.639ZM144.793 19.6519H147.361C148.261 19.6519 148.924 19.4813 149.349 19.14C149.78 18.7988 149.996 18.3233 149.996 17.7135C149.996 17.2716 149.892 16.8912 149.685 16.5723C149.478 16.2479 149.184 15.9989 148.804 15.8255C148.424 15.6465 147.968 15.557 147.436 15.557H144.793V19.6519ZM144.793 12.8802H147.092C147.545 12.8802 147.948 12.8047 148.3 12.6536C148.653 12.5026 148.927 12.2844 149.123 11.9991C149.324 11.7138 149.425 11.3698 149.425 10.967C149.425 10.3908 149.221 9.93769 148.812 9.60764C148.404 9.27759 147.853 9.11256 147.159 9.11256H144.793V12.8802ZM155.504 23V5.81481H159.657V19.6267H166.807V23H155.504ZM183.681 14.4074C183.681 16.2982 183.317 17.9009 182.59 19.2156C181.863 20.5302 180.878 21.5287 179.636 22.2112C178.4 22.8937 177.013 23.235 175.474 23.235C173.93 23.235 172.54 22.8909 171.304 22.2028C170.068 21.5148 169.086 20.5162 168.359 19.2072C167.637 17.8926 167.276 16.2926 167.276 14.4074C167.276 12.5166 167.637 10.9139 168.359 9.59925C169.086 8.28463 170.068 7.28607 171.304 6.60359C172.54 5.9211 173.93 5.57986 175.474 5.57986C177.013 5.57986 178.4 5.9211 179.636 6.60359C180.878 7.28607 181.863 8.28463 182.59 9.59925C183.317 10.9139 183.681 12.5166 183.681 14.4074ZM179.435 14.4074C179.435 13.2886 179.276 12.3432 178.957 11.5712C178.643 10.7992 178.19 10.2146 177.597 9.81742C177.01 9.42023 176.302 9.22164 175.474 9.22164C174.652 9.22164 173.944 9.42023 173.351 9.81742C172.758 10.2146 172.303 10.7992 171.984 11.5712C171.67 12.3432 171.514 13.2886 171.514 14.4074C171.514 15.5262 171.67 16.4716 171.984 17.2436C172.303 18.0156 172.758 18.6002 173.351 18.9974C173.944 19.3946 174.652 19.5932 175.474 19.5932C176.302 19.5932 177.01 19.3946 177.597 18.9974C178.19 18.6002 178.643 18.0156 178.957 17.2436C179.276 16.4716 179.435 15.5262 179.435 14.4074ZM196.557 11.4285C196.462 11.0761 196.322 10.7656 196.137 10.4971C195.953 10.223 195.726 9.99084 195.458 9.80064C195.189 9.61044 194.881 9.46779 194.535 9.37269C194.188 9.27199 193.807 9.22164 193.393 9.22164C192.56 9.22164 191.838 9.42303 191.228 9.82581C190.624 10.2286 190.157 10.816 189.827 11.588C189.497 12.3544 189.332 13.2858 189.332 14.3822C189.332 15.4843 189.491 16.4241 189.81 17.2017C190.129 17.9793 190.591 18.5722 191.195 18.9806C191.799 19.389 192.532 19.5932 193.393 19.5932C194.154 19.5932 194.797 19.4701 195.323 19.224C195.855 18.9722 196.258 18.617 196.532 18.1583C196.806 17.6996 196.943 17.1597 196.943 16.5388L197.715 16.6311H193.536V13.6019H200.945V15.8759C200.945 17.4143 200.618 18.7317 199.964 19.8281C199.315 20.9246 198.42 21.7665 197.278 22.3539C196.143 22.9413 194.837 23.235 193.36 23.235C191.721 23.235 190.28 22.8797 189.038 22.1693C187.796 21.4588 186.829 20.4463 186.135 19.1317C185.441 17.8114 185.094 16.2451 185.094 14.4326C185.094 13.0229 185.304 11.7726 185.724 10.6817C186.143 9.58526 186.728 8.65664 187.478 7.89583C188.233 7.13503 189.105 6.55883 190.096 6.16724C191.091 5.77566 192.163 5.57986 193.309 5.57986C194.305 5.57986 195.231 5.72251 196.087 6.00781C196.948 6.29311 197.709 6.69589 198.369 7.21615C199.035 7.7364 199.575 8.35455 199.989 9.0706C200.403 9.78665 200.66 10.5726 200.761 11.4285H196.557Z" fill="#25273B"/>
<path d="M21.8911 19.4552H13.5625C13.4689 19.4552 13.2818 19.4552 13.1882 19.5488L6.91833 24.5085C6.82475 24.6021 6.82475 24.6957 6.91833 24.7893C6.91833 24.8828 7.01191 24.8828 7.10549 24.8828H21.9847C23.482 24.8828 24.7921 23.5727 24.6985 21.9819C24.605 20.4846 23.2948 19.4552 21.8911 19.4552Z" fill="#00C9DB"/>
<path d="M15.0967 14.2306C15.0032 13.4819 14.6288 12.7333 14.0674 12.2654L4.42861 4.59183C3.21207 3.65603 1.52763 3.84319 0.591827 5.05973C-0.343973 6.27627 -0.156813 7.96071 1.05973 8.89651L8.07823 14.5113L1.05973 20.1261C-0.156813 21.0619 -0.343973 22.7464 0.591827 23.9629C1.52763 25.1794 3.21207 25.3666 4.42861 24.4308L14.0674 16.5701C14.7224 16.0086 15.0967 15.26 15.0967 14.4177V14.2306Z" fill="#0D55FF"/>
<path d="M24.6991 22.169C24.6991 23.6663 23.4826 24.8828 21.9853 24.8828C20.488 24.8828 19.2715 23.6663 19.2715 22.169C19.2715 20.6717 20.488 19.4552 21.9853 19.4552C23.4826 19.4552 24.6991 20.6717 24.6991 22.169Z" fill="#7000F2"/>
</svg>
