<svg width="225" height="38" viewBox="0 0 225 38" fill="none" xmlns="http://www.w3.org/2000/svg">
<rect y="18" width="92" height="13" fill="#88CCFE"/>
<path d="M17.2014 31H9.00868V7.88889H17.2691C19.5937 7.88889 21.5949 8.35156 23.2726 9.27691C24.9502 10.1947 26.2405 11.515 27.1432 13.2378C28.0535 14.9606 28.5087 17.022 28.5087 19.4219C28.5087 21.8293 28.0535 23.8981 27.1432 25.6285C26.2405 27.3588 24.9427 28.6866 23.25 29.612C21.5648 30.5373 19.5486 31 17.2014 31ZM13.895 26.8134H16.9983C18.4427 26.8134 19.6577 26.5576 20.6432 26.046C21.6363 25.5269 22.3811 24.7257 22.8776 23.6424C23.3817 22.5515 23.6337 21.1447 23.6337 19.4219C23.6337 17.7141 23.3817 16.3186 22.8776 15.2352C22.3811 14.1519 21.64 13.3545 20.6545 12.8429C19.669 12.3313 18.454 12.0755 17.0095 12.0755H13.895V26.8134ZM31.016 31V7.88889H46.5889V11.9175H35.9023V17.4245H45.7877V21.4531H35.9023V26.9714H46.6341V31H31.016ZM69.753 15.98H64.8103C64.72 15.3406 64.5357 14.7726 64.2573 14.276C63.979 13.772 63.6216 13.3432 63.1853 12.9896C62.7489 12.636 62.2449 12.3652 61.6731 12.1771C61.1089 11.989 60.4957 11.895 59.8337 11.895C58.6375 11.895 57.5956 12.1921 56.7078 12.7865C55.8201 13.3733 55.1317 14.2309 54.6427 15.3594C54.1537 16.4803 53.9092 17.842 53.9092 19.4444C53.9092 21.092 54.1537 22.4763 54.6427 23.5972C55.1393 24.7182 55.8314 25.5645 56.7191 26.1363C57.6069 26.708 58.6338 26.9939 59.7999 26.9939C60.4544 26.9939 61.06 26.9074 61.6167 26.7344C62.1809 26.5613 62.6812 26.3093 63.1176 25.9783C63.5539 25.6398 63.915 25.2297 64.2009 24.7483C64.4943 24.2668 64.6974 23.7176 64.8103 23.1007L69.753 23.1233C69.6251 24.184 69.3054 25.2072 68.7938 26.1927C68.2897 27.1707 67.6089 28.0472 66.7512 28.822C65.9011 29.5894 64.8855 30.1988 63.7044 30.6502C62.5308 31.094 61.2029 31.316 59.7209 31.316C57.6595 31.316 55.8164 30.8495 54.1914 29.9167C52.5739 28.9838 51.2949 27.6334 50.3545 25.8655C49.4217 24.0975 48.9552 21.9572 48.9552 19.4444C48.9552 16.9242 49.4292 14.7801 50.3771 13.0122C51.325 11.2442 52.6115 9.89757 54.2365 8.97222C55.8615 8.03935 57.6896 7.57292 59.7209 7.57292C61.06 7.57292 62.3013 7.761 63.4448 8.13715C64.5959 8.51331 65.6153 9.0625 66.503 9.78472C67.3907 10.4994 68.1129 11.3759 68.6697 12.4141C69.2339 13.4523 69.595 14.6409 69.753 15.98ZM93.3825 19.4444C93.3825 21.9647 92.9048 24.1088 91.9494 25.8767C91.0014 27.6447 89.7075 28.9951 88.0674 29.928C86.4349 30.8533 84.5992 31.316 82.5605 31.316C80.5066 31.316 78.6635 30.8495 77.031 29.9167C75.3984 28.9838 74.1082 27.6334 73.1603 25.8655C72.2124 24.0975 71.7384 21.9572 71.7384 19.4444C71.7384 16.9242 72.2124 14.7801 73.1603 13.0122C74.1082 11.2442 75.3984 9.89757 77.031 8.97222C78.6635 8.03935 80.5066 7.57292 82.5605 7.57292C84.5992 7.57292 86.4349 8.03935 88.0674 8.97222C89.7075 9.89757 91.0014 11.2442 91.9494 13.0122C92.9048 14.7801 93.3825 16.9242 93.3825 19.4444ZM88.4285 19.4444C88.4285 17.8119 88.184 16.4352 87.695 15.3142C87.2135 14.1933 86.5327 13.3432 85.6525 12.7639C84.7723 12.1846 83.7416 11.895 82.5605 11.895C81.3793 11.895 80.3487 12.1846 79.4685 12.7639C78.5882 13.3432 77.9036 14.1933 77.4146 15.3142C76.9332 16.4352 76.6924 17.8119 76.6924 19.4444C76.6924 21.077 76.9332 22.4537 77.4146 23.5747C77.9036 24.6956 78.5882 25.5457 79.4685 26.125C80.3487 26.7043 81.3793 26.9939 82.5605 26.9939C83.7416 26.9939 84.7723 26.7043 85.6525 26.125C86.5327 25.5457 87.2135 24.6956 87.695 23.5747C88.184 22.4537 88.4285 21.077 88.4285 19.4444ZM104.083 31H95.8899V7.88889H104.15C106.475 7.88889 108.476 8.35156 110.154 9.27691C111.831 10.1947 113.122 11.515 114.024 13.2378C114.935 14.9606 115.39 17.022 115.39 19.4219C115.39 21.8293 114.935 23.8981 114.024 25.6285C113.122 27.3588 111.824 28.6866 110.131 29.612C108.446 30.5373 106.43 31 104.083 31ZM100.776 26.8134H103.879C105.324 26.8134 106.539 26.5576 107.524 26.046C108.517 25.5269 109.262 24.7257 109.759 23.6424C110.263 22.5515 110.515 21.1447 110.515 19.4219C110.515 17.7141 110.263 16.3186 109.759 15.2352C109.262 14.1519 108.521 13.3545 107.536 12.8429C106.55 12.3313 105.335 12.0755 103.891 12.0755H100.776V26.8134ZM117.897 31V7.88889H133.47V11.9175H122.784V17.4245H132.669V21.4531H122.784V26.9714H133.515V31H117.897ZM142.485 31V7.88889H151.739C153.439 7.88889 154.857 8.14091 155.993 8.64497C157.129 9.14902 157.983 9.84867 158.555 10.7439C159.126 11.6317 159.412 12.6548 159.412 13.8134C159.412 14.7161 159.232 15.5098 158.871 16.1944C158.51 16.8715 158.013 17.4282 157.381 17.8646C156.757 18.2934 156.042 18.5981 155.237 18.7786V19.0043C156.117 19.042 156.941 19.2902 157.708 19.7491C158.483 20.208 159.111 20.8513 159.593 21.6788C160.074 22.4988 160.315 23.4769 160.315 24.6128C160.315 25.8391 160.01 26.9337 159.401 27.8967C158.799 28.8521 157.908 29.6082 156.727 30.1649C155.545 30.7216 154.09 31 152.359 31H142.485ZM147.372 27.0052H151.355C152.717 27.0052 153.71 26.7457 154.334 26.2266C154.959 25.6999 155.271 25.0003 155.271 24.1276C155.271 23.4881 155.117 22.9239 154.808 22.4349C154.5 21.9459 154.06 21.5622 153.488 21.2839C152.924 21.0055 152.25 20.8663 151.468 20.8663H147.372V27.0052ZM147.372 17.5599H150.994C151.664 17.5599 152.258 17.4433 152.777 17.2101C153.304 16.9693 153.717 16.6308 154.018 16.1944C154.327 15.7581 154.481 15.2352 154.481 14.6259C154.481 13.7908 154.184 13.1175 153.589 12.6059C153.003 12.0943 152.168 11.8385 151.084 11.8385H147.372V17.5599ZM162.382 31V7.88889H167.269V26.9714H177.177V31H162.382ZM199.638 19.4444C199.638 21.9647 199.161 24.1088 198.205 25.8767C197.257 27.6447 195.963 28.9951 194.323 29.928C192.691 30.8533 190.855 31.316 188.816 31.316C186.762 31.316 184.919 30.8495 183.287 29.9167C181.654 28.9838 180.364 27.6334 179.416 25.8655C178.468 24.0975 177.994 21.9572 177.994 19.4444C177.994 16.9242 178.468 14.7801 179.416 13.0122C180.364 11.2442 181.654 9.89757 183.287 8.97222C184.919 8.03935 186.762 7.57292 188.816 7.57292C190.855 7.57292 192.691 8.03935 194.323 8.97222C195.963 9.89757 197.257 11.2442 198.205 13.0122C199.161 14.7801 199.638 16.9242 199.638 19.4444ZM194.684 19.4444C194.684 17.8119 194.44 16.4352 193.951 15.3142C193.469 14.1933 192.788 13.3432 191.908 12.7639C191.028 12.1846 189.997 11.895 188.816 11.895C187.635 11.895 186.604 12.1846 185.724 12.7639C184.844 13.3432 184.159 14.1933 183.67 15.3142C183.189 16.4352 182.948 17.8119 182.948 19.4444C182.948 21.077 183.189 22.4537 183.67 23.5747C184.159 24.6956 184.844 25.5457 185.724 26.125C186.604 26.7043 187.635 26.9939 188.816 26.9939C189.997 26.9939 191.028 26.7043 191.908 26.125C192.788 25.5457 193.469 24.6956 193.951 23.5747C194.44 22.4537 194.684 21.077 194.684 19.4444ZM217.47 15.3594C217.312 14.8102 217.09 14.3249 216.804 13.9036C216.519 13.4748 216.169 13.1137 215.755 12.8203C215.349 12.5194 214.882 12.2899 214.356 12.1319C213.837 11.974 213.261 11.895 212.629 11.895C211.448 11.895 210.41 12.1884 209.514 12.7752C208.627 13.362 207.935 14.2159 207.438 15.3368C206.942 16.4502 206.693 17.8119 206.693 19.4219C206.693 21.0318 206.938 22.401 207.427 23.5295C207.916 24.658 208.608 25.5194 209.503 26.1137C210.398 26.7005 211.455 26.9939 212.674 26.9939C213.78 26.9939 214.724 26.7983 215.507 26.4071C216.297 26.0084 216.898 25.4479 217.312 24.7257C217.734 24.0035 217.944 23.1496 217.944 22.1641L218.937 22.3108H212.979V18.6319H222.65V21.5434C222.65 23.5747 222.221 25.32 221.363 26.7795C220.506 28.2315 219.325 29.3524 217.82 30.1424C216.315 30.9248 214.593 31.316 212.652 31.316C210.485 31.316 208.582 30.8383 206.942 29.8828C205.302 28.9198 204.023 27.5544 203.105 25.7865C202.194 24.011 201.739 21.9045 201.739 19.467C201.739 17.5938 202.01 15.9236 202.552 14.4566C203.101 12.9821 203.868 11.7332 204.854 10.7101C205.839 9.68692 206.987 8.90828 208.296 8.37413C209.605 7.83999 211.023 7.57292 212.55 7.57292C213.859 7.57292 215.078 7.76476 216.206 8.14844C217.335 8.5246 218.335 9.05874 219.208 9.75087C220.088 10.443 220.807 11.2668 221.363 12.2222C221.92 13.1701 222.278 14.2159 222.435 15.3594H217.47Z" fill="#2B2D42"/>
</svg>
