<svg width="16" height="16" viewBox="0 0 16 16" fill="none" xmlns="http://www.w3.org/2000/svg">
<path d="M5.33333 6.66667H5.34M8 6.66667H8.00667M10.6667 6.66667H10.6733M14 8.66667V4.66667C14 3.40933 14 2.78133 13.6093 2.39067C13.2187 2 12.5907 2 11.3333 2H4.66667C3.40933 2 2.78133 2 2.39067 2.39067C2 2.78133 2 3.40933 2 4.66667V8.66667C2 9.924 2 10.552 2.39067 10.9427C2.78133 11.3333 3.40933 11.3333 4.66667 11.3333H5C5.08841 11.3333 5.17319 11.3685 5.2357 11.431C5.29821 11.4935 5.33333 11.5783 5.33333 11.6667V13.4333C5.33333 13.6693 5.60067 13.8053 5.792 13.6667L8.73067 11.5293C8.90533 11.402 9.11667 11.3333 9.33333 11.3333H11.3333C12.5907 11.3333 13.2187 11.3333 13.6093 10.9427C14 10.552 14 9.924 14 8.66667Z" stroke="black" stroke-width="1.33333" stroke-linecap="round" stroke-linejoin="round"/>
</svg>
