<svg width="60" height="60" viewBox="0 0 60 60" fill="none" xmlns="http://www.w3.org/2000/svg">
<path d="M35 12.5C35 15.2614 32.7615 17.5 30 17.5C27.2385 17.5 25 15.2614 25 12.5C25 9.73857 27.2385 7.5 30 7.5C32.7615 7.5 35 9.73857 35 12.5Z" fill="#757575"/>
<path d="M35 30C35 32.7615 32.7615 35 30 35C27.2385 35 25 32.7615 25 30C25 27.2385 27.2385 25 30 25C32.7615 25 35 27.2385 35 30Z" fill="#757575"/>
<path d="M30 52.5C32.7615 52.5 35 50.2615 35 47.5C35 44.7385 32.7615 42.5 30 42.5C27.2385 42.5 25 44.7385 25 47.5C25 50.2615 27.2385 52.5 30 52.5Z" fill="#757575"/>
</svg>
