<svg width="16" height="16" viewBox="0 0 16 16" fill="none" xmlns="http://www.w3.org/2000/svg">
<path d="M10 8C10 8.53043 9.78929 9.03914 9.41421 9.41421C9.03914 9.78929 8.53043 10 8 10C7.46957 10 6.96086 9.78929 6.58579 9.41421C6.21071 9.03914 6 8.53043 6 8C6 7.46957 6.21071 6.96086 6.58579 6.58579C6.96086 6.21071 7.46957 6 8 6C8.53043 6 9.03914 6.21071 9.41421 6.58579C9.78929 6.96086 10 7.46957 10 8Z" stroke="black" stroke-width="1.33333" stroke-linecap="round" stroke-linejoin="round"/>
<path d="M4.63325 4.70001C5.0666 4.26662 5.58107 3.92283 6.14729 3.68828C6.71351 3.45373 7.32038 3.33301 7.93325 3.33301C8.54613 3.33301 9.153 3.45373 9.71922 3.68828C10.2854 3.92283 10.7999 4.26662 11.2333 4.70001L12.6466 6.11468C13.5359 7.00334 13.9799 7.44801 13.9799 8.00001C13.9799 8.55201 13.5359 8.99668 12.6466 9.88534L11.2333 11.3C10.7999 11.7334 10.2854 12.0772 9.71922 12.3117C9.153 12.5463 8.54613 12.667 7.93325 12.667C7.32038 12.667 6.71351 12.5463 6.14729 12.3117C5.58107 12.0772 5.0666 11.7334 4.63325 11.3L3.21859 9.88534C2.32992 8.99668 1.88525 8.55201 1.88525 8.00001C1.88525 7.44801 2.32992 7.00334 3.21859 6.11468L4.63325 4.70001Z" stroke="black" stroke-width="1.33333" stroke-linecap="round" stroke-linejoin="round"/>
</svg>
