<svg width="15" height="15" viewBox="0 0 15 15" fill="none" xmlns="http://www.w3.org/2000/svg">
<path d="M1 13.9419C1.68808 11.7302 3.45895 11.0659 7.47093 11.0659C11.4829 11.0659 13.2538 11.7302 13.9419 13.9419M11.0659 4.59496C11.0659 5.5484 10.6871 6.4628 10.013 7.13698C9.33877 7.81117 8.42437 8.18992 7.47093 8.18992C6.51749 8.18992 5.60309 7.81117 4.92891 7.13698C4.25472 6.4628 3.87597 5.5484 3.87597 4.59496C3.87597 3.64152 4.25472 2.72713 4.92891 2.05294C5.60309 1.37875 6.51749 1 7.47093 1C8.42437 1 9.33877 1.37875 10.013 2.05294C10.6871 2.72713 11.0659 3.64152 11.0659 4.59496Z" stroke="black" stroke-width="1.5" stroke-linecap="round" stroke-linejoin="round"/>
</svg>
