<svg width="20" height="20" viewBox="0 0 20 20" fill="none" xmlns="http://www.w3.org/2000/svg">
<path fill-rule="evenodd" clip-rule="evenodd" d="M3.33366 9.16675C3.33366 5.94509 5.94533 3.33341 9.16699 3.33341C12.3887 3.33341 15.0003 5.94509 15.0003 9.16675C15.0003 12.3884 12.3887 15.0001 9.16699 15.0001C5.94533 15.0001 3.33366 12.3884 3.33366 9.16675ZM9.16699 1.66675C5.02486 1.66675 1.66699 5.02461 1.66699 9.16675C1.66699 13.3089 5.02486 16.6667 9.16699 16.6667C10.9378 16.6667 12.5653 16.053 13.8484 15.0267L16.9111 18.0893C17.2365 18.4147 17.7642 18.4147 18.0896 18.0893C18.415 17.7639 18.415 17.2362 18.0896 16.9108L15.0269 13.8482C16.0532 12.5651 16.667 10.9376 16.667 9.16675C16.667 5.02461 13.3092 1.66675 9.16699 1.66675Z" fill="black"/>
</svg>
