<svg width="24" height="24" viewBox="0 0 24 24" fill="none" xmlns="http://www.w3.org/2000/svg">
<path d="M10 17V11M14 17V11M4 7H20M16 7C16 5.114 16 4.172 15.414 3.586C14.828 3 13.886 3 12 3C10.114 3 9.172 3 8.586 3.586C8 4.172 8 5.114 8 7M6 8C6 7.73478 6.10536 7.48043 6.29289 7.29289C6.48043 7.10536 6.73478 7 7 7H17C17.2652 7 17.5196 7.10536 17.7071 7.29289C17.8946 7.48043 18 7.73478 18 8V17C18 18.886 18 19.828 17.414 20.414C16.828 21 15.886 21 14 21H10C8.114 21 7.172 21 6.586 20.414C6 19.828 6 18.886 6 17V8Z" stroke="#878994" stroke-width="2" stroke-linecap="round" stroke-linejoin="round"/>
</svg>
