<svg width="12" height="12" viewBox="0 0 12 12" fill="none" xmlns="http://www.w3.org/2000/svg">
<path fill-rule="evenodd" clip-rule="evenodd" d="M3 4C3 2.34315 4.34315 1 6 1C7.65685 1 9 2.34315 9 4C9 5.65685 7.65685 7 6 7C4.34315 7 3 5.65685 3 4Z" fill="#878994"/>
<path fill-rule="evenodd" clip-rule="evenodd" d="M2.71571 8.45125C3.52818 8.11065 4.61189 8 6.00024 8C7.38574 8 8.46779 8.1102 9.27954 8.44905C10.1508 8.81275 10.6856 9.43065 10.9707 10.3294C11.0766 10.6634 10.8261 11 10.4798 11H1.51754C1.17265 11 0.923637 10.6648 1.02869 10.3327C1.31293 9.43405 1.84584 8.8159 2.71571 8.45125Z" fill="#878994"/>
</svg>
