<svg width="16" height="16" viewBox="0 0 16 16" fill="none" xmlns="http://www.w3.org/2000/svg">
<path fill-rule="evenodd" clip-rule="evenodd" d="M5.33334 7.99996C5.33334 6.5272 6.52724 5.33329 8 5.33329C9.47274 5.33329 10.6667 6.5272 10.6667 7.99996C10.6667 9.47269 9.47274 10.6666 8 10.6666C6.52724 10.6666 5.33334 9.47269 5.33334 7.99996ZM4.16156 4.22873C6.24436 2.14593 9.62127 2.14593 11.704 4.22873L13.1493 5.67396C13.5672 6.09183 13.9273 6.45188 14.1769 6.77896C14.4443 7.12956 14.6469 7.51943 14.6469 7.99996C14.6469 8.48049 14.4443 8.87036 14.1769 9.22096C13.9273 9.54803 13.5672 9.90809 13.1493 10.326L11.704 11.7712C9.62127 13.854 6.24436 13.854 4.16156 11.7712L2.71632 10.326C2.2984 9.90809 1.93831 9.54803 1.68874 9.22096C1.42127 8.87036 1.21875 8.48049 1.21875 7.99996C1.21875 7.51943 1.42127 7.12956 1.68874 6.77896C1.93831 6.45188 2.2984 6.09183 2.71632 5.67397C2.72663 5.66366 2.73697 5.65331 2.74735 5.64294L4.16156 4.22873Z" fill="#878994"/>
<path fill-rule="evenodd" clip-rule="evenodd" d="M8.00033 6.66663C7.26393 6.66663 6.66699 7.26356 6.66699 7.99996C6.66699 8.73636 7.26393 9.33329 8.00033 9.33329C8.73673 9.33329 9.33366 8.73636 9.33366 7.99996C9.33366 7.26356 8.73673 6.66663 8.00033 6.66663Z" fill="#878994"/>
</svg>
